<svg xmlns="http://www.w3.org/2000/svg" xmlns:xlink="http://www.w3.org/1999/xlink" width="810" viewBox="0 0 810 810" height="810" version="1.0"><defs><g id="a"><path d="M 291.90625 0 L 213.421875 0 L 189.90625 -107.046875 C 188.78125 -111.523438 187.015625 -120.429688 184.609375 -133.765625 C 182.203125 -147.097656 180.4375 -158.25 179.3125 -167.21875 C 178.414062 -159.925781 176.957031 -150.875 174.9375 -140.0625 C 172.925781 -129.257812 170.9375 -119.316406 168.96875 -110.234375 C 167.007812 -101.160156 158.863281 -64.414062 144.53125 0 L 66.046875 0 L 5.203125 -245.6875 L 69.234375 -245.6875 L 95.953125 -122.515625 C 102.003906 -95.285156 106.148438 -73.601562 108.390625 -57.46875 C 109.847656 -68.894531 112.453125 -84.410156 116.203125 -104.015625 C 119.960938 -123.628906 123.46875 -139.878906 126.71875 -152.765625 L 148.390625 -245.6875 L 209.890625 -245.6875 L 230.90625 -152.765625 C 234.488281 -137.859375 238.128906 -120.65625 241.828125 -101.15625 C 245.523438 -81.664062 247.988281 -67.101562 249.21875 -57.46875 C 250.675781 -69.90625 254.65625 -91.472656 261.15625 -122.171875 L 288.375 -245.6875 L 352.40625 -245.6875 Z M 291.90625 0"/></g></defs><g fill="#41AEA9"><use x="188.586" y="555.277" xmlns:xlink="http://www.w3.org/1999/xlink" xlink:href="#a" xlink:type="simple" xlink:actuate="onLoad" xlink:show="embed"/></g><g fill="#0E1B3A"><use x="188.586" y="555.277" xmlns:xlink="http://www.w3.org/1999/xlink" xlink:href="#a" xlink:type="simple" xlink:actuate="onLoad" xlink:show="embed"/></g><g fill="#41AEA9"><use x="472.252" y="555.277" xmlns:xlink="http://www.w3.org/1999/xlink" xlink:href="#a" xlink:type="simple" xlink:actuate="onLoad" xlink:show="embed"/></g><path fill="#FFF" d="M 594.382812 291.035156 L 835.359375 291.035156 L 835.359375 562.714844 L 594.382812 562.714844 Z M 594.382812 291.035156"/><path fill="#FFF" d="M 543.738281 304.007812 L 610.65625 290.832031 L 663.140625 557.390625 L 596.222656 570.566406 Z M 543.738281 304.007812"/></svg>